
<svg width="60" height="60" viewBox="0 0 60 60" fill="none" xmlns="http://www.w3.org/2000/svg">
<rect width="60" height="60" rx="30" fill="white"/>
<path d="M18 41V19H32.8242V22.835H22.6514V28.0771H32.0615V31.9121H22.6514V37.165H32.8672V41H18Z" fill="#2E343F"/>
<path d="M33.0061 19V41H28.3547V19H33.0061Z" fill="#2E343F"/>
<path d="M28.6655 41V19H37.3452C39.0138 19 40.4353 19.3187 41.6098 19.9561C42.7843 20.5863 43.6795 21.4635 44.2954 22.5879C44.9184 23.7051 45.2299 24.9941 45.2299 26.4551C45.2299 27.916 44.9148 29.2051 44.2846 30.3223C43.6544 31.4395 42.7413 32.3096 41.5454 32.9326C40.3566 33.5557 38.9171 33.8672 37.227 33.8672H31.6948V30.1396H36.4751C37.3702 30.1396 38.1079 29.9857 38.6879 29.6777C39.2752 29.3626 39.712 28.9294 39.9985 28.3779C40.2921 27.8193 40.4389 27.1784 40.4389 26.4551C40.4389 25.7246 40.2921 25.0872 39.9985 24.543C39.712 23.9915 39.2752 23.5654 38.6879 23.2646C38.1007 22.9567 37.3559 22.8027 36.4536 22.8027H33.3169V41H28.6655Z" fill="#2E343F"/>
<rect x="28.1001" y="19" width="5.21053" height="22" fill="#437EF7"/>
</svg>
