
<svg width="60" height="60" viewBox="0 0 60 60" fill="none" xmlns="http://www.w3.org/2000/svg">
<rect width="60" height="60" rx="30" fill="white"/>
<path d="M30.4713 37.9685L21 32.1729L30.4713 46L39.9425 32.1729L30.4713 37.9685Z" fill="#222935"/>
<path d="M30.4713 37.9685L21 32.1729L30.4713 46L39.9425 32.1729L30.4713 37.9685Z" fill="#222935"/>
<path d="M30.4713 37.9685L21 32.1729L30.4713 46L39.9425 32.1729L30.4713 37.9685Z" fill="#222935"/>
<path d="M30.4713 37.9685L21 32.1729L30.4713 46L39.9425 32.1729L30.4713 37.9685Z" fill="#222935"/>
<path d="M30.4713 37.9685L21 32.1729L30.4713 46L39.9425 32.1729L30.4713 37.9685Z" fill="#222935"/>
<path d="M30.4713 37.9685L21 32.1729L30.4713 46L39.9425 32.1729L30.4713 37.9685Z" fill="#222935"/>
<path d="M39.9425 30.3173L30.4744 36.1234L21 30.3173L30.4744 14L39.9425 30.3173Z" fill="#222935"/>
<path d="M39.9425 30.3173L30.4744 36.1234L21 30.3173L30.4744 14L39.9425 30.3173Z" fill="#222935"/>
<path d="M39.9425 30.3173L30.4744 36.1234L21 30.3173L30.4744 14L39.9425 30.3173Z" fill="#222935"/>
<path d="M39.9425 30.3173L30.4744 36.1234L21 30.3173L30.4744 14L39.9425 30.3173Z" fill="#222935"/>
<path d="M39.9425 30.3173L30.4744 36.1234L21 30.3173L30.4744 14L39.9425 30.3173Z" fill="#222935"/>
<path d="M39.9425 30.3173L30.4744 36.1234L21 30.3173L30.4744 14L39.9425 30.3173Z" fill="#222935"/>
<path d="M30.4713 37.9685L21 32.1729L30.4713 46L39.9425 32.1729L30.4713 37.9685Z" fill="#222935"/>
<path d="M30.4713 37.9685L21 32.1729L30.4713 46L39.9425 32.1729L30.4713 37.9685Z" fill="#437EF7"/>
<path d="M30.4713 37.9685L21 32.1729L30.4713 46L39.9425 32.1729L30.4713 37.9685Z" fill="#222935"/>
<path d="M30.4713 37.9685L21 32.1729L30.4713 46L39.9425 32.1729L30.4713 37.9685Z" fill="#437EF7"/>
<path d="M30.4713 37.9685L21 32.1729L30.4713 46L39.9425 32.1729L30.4713 37.9685Z" fill="#222935"/>
<path d="M30.4713 37.9685L21 32.1729L30.4713 46L39.9425 32.1729L30.4713 37.9685Z" fill="#437EF7"/>
</svg>
