<svg width="89" height="32" viewBox="0 0 89 32" fill="none" xmlns="http://www.w3.org/2000/svg">
<g id="logo">
<g id="Vector">
<path d="M28 22.837V10H36.9712V12.2377H30.8149V15.2965H36.5096V17.5342H30.8149V20.5993H36.9972V22.837H28Z" fill="#222935"/>
<path d="M41.5663 10V22.837H38.7515V10H41.5663Z" fill="#222935"/>
<path d="M43.4246 22.837V10H48.6773C49.6871 10 50.5474 10.186 51.2581 10.5579C51.9689 10.9256 52.5106 11.4375 52.8834 12.0935C53.2604 12.7454 53.4489 13.4976 53.4489 14.35C53.4489 15.2025 53.2582 15.9547 52.8769 16.6066C52.4955 17.2584 51.9429 17.7662 51.2191 18.1297C50.4997 18.4932 49.6286 18.675 48.6058 18.675H45.2578V16.5H48.1507C48.6925 16.5 49.1389 16.4102 49.4899 16.2305C49.8453 16.0466 50.1097 15.7938 50.283 15.472C50.4607 15.1461 50.5495 14.7721 50.5495 14.35C50.5495 13.9238 50.4607 13.5519 50.283 13.2343C50.1097 12.9126 49.8453 12.6639 49.4899 12.4884C49.1345 12.3087 48.6838 12.2189 48.1377 12.2189H46.2395V22.837H43.4246Z" fill="#222935"/>
<path d="M55.8631 23C55.4341 23 55.0657 22.8537 54.758 22.5612C54.4546 22.2645 54.3029 21.9094 54.3029 21.4957C54.3029 21.0861 54.4546 20.7351 54.758 20.4426C55.0657 20.1501 55.4341 20.0039 55.8631 20.0039C56.2792 20.0039 56.6432 20.1501 56.9553 20.4426C57.2673 20.7351 57.4234 21.0861 57.4234 21.4957C57.4234 21.7715 57.3497 22.0243 57.2023 22.2541C57.0593 22.4798 56.8708 22.6615 56.6367 22.7994C56.4027 22.9331 56.1448 23 55.8631 23Z" fill="#222935"/>
<path d="M59.2914 22.837V10H68.1065V12.2377H62.1063V15.2965H67.5215V17.5342H62.1063V22.837H59.2914Z" fill="#222935"/>
<path d="M75.2679 18.7377V13.2093H78.0373V22.837H75.3784V21.0882H75.2744C75.049 21.6524 74.6742 22.1058 74.1497 22.4484C73.6297 22.7911 72.9948 22.9624 72.245 22.9624C71.5776 22.9624 70.9903 22.8161 70.4833 22.5236C69.9762 22.2311 69.5796 21.8153 69.2936 21.2763C69.0119 20.7372 68.8689 20.0916 68.8646 19.3394V13.2093H71.6339V18.8631C71.6383 19.4314 71.7964 19.8806 72.1085 20.2107C72.4205 20.5408 72.8387 20.7059 73.3631 20.7059C73.6969 20.7059 74.0089 20.6328 74.2993 20.4865C74.5896 20.3361 74.8237 20.1146 75.0014 19.8221C75.1834 19.5296 75.2722 19.1681 75.2679 18.7377Z" fill="#437EF7"/>
<path d="M82.5641 17.271V22.837H79.7948V13.2093H82.4341V14.9079H82.5511C82.7722 14.348 83.1427 13.905 83.6628 13.5791C84.1829 13.249 84.8134 13.0839 85.5545 13.0839C86.248 13.0839 86.8526 13.2302 87.3683 13.5227C87.884 13.8152 88.2849 14.233 88.5709 14.7763C88.857 15.3153 89 15.9589 89 16.7068V22.837H86.2306V17.1832C86.235 16.594 86.0789 16.1344 85.7626 15.8042C85.4462 15.4699 85.0106 15.3028 84.4559 15.3028C84.0832 15.3028 83.7538 15.3801 83.4678 15.5347C83.1861 15.6893 82.965 15.915 82.8047 16.2117C82.6487 16.5042 82.5685 16.8573 82.5641 17.271Z" fill="#222935"/>
<path d="M45.1281 16.4342H46.2417V18.7564H45.1281V16.4342Z" fill="#222935"/>
</g>
<g id="Vector_2">
<path d="M9.5 23.9685L0 18.1729L9.5 32L19 18.1729L9.5 23.9685Z" fill="#222935"/>
<path d="M9.5 23.9685L0 18.1729L9.5 32L19 18.1729L9.5 23.9685Z" fill="#222935"/>
<path d="M9.5 23.9685L0 18.1729L9.5 32L19 18.1729L9.5 23.9685Z" fill="#222935"/>
<path d="M19 16.3173L9.50313 22.1234L0 16.3173L9.50313 0L19 16.3173Z" fill="#222935"/>
<path d="M19 16.3173L9.50313 22.1234L0 16.3173L9.50313 0L19 16.3173Z" fill="#222935"/>
<path d="M19 16.3173L9.50313 22.1234L0 16.3173L9.50313 0L19 16.3173Z" fill="#222935"/>
<path d="M9.5 23.9685L0 18.1729L9.5 32L19 18.1729L9.5 23.9685Z" fill="#222935"/>
<path d="M9.5 23.9685L0 18.1729L9.5 32L19 18.1729L9.5 23.9685Z" fill="#222935"/>
<path d="M9.5 23.9685L0 18.1729L9.5 32L19 18.1729L9.5 23.9685Z" fill="#437EF7"/>
</g>
</g>
</svg>
