
<svg width="101" height="32" viewBox="0 0 101 32" fill="none" xmlns="http://www.w3.org/2000/svg">
<path d="M28.6895 23.1625V9.93103H37.7083V12.2375H31.5193V15.3903H37.2443V17.6968H31.5193V20.856H37.7345V23.1625H28.6895Z" fill="#222935"/>
<path d="M42.3279 9.93103V23.1625H39.498V9.93103H42.3279Z" fill="#222935"/>
<path d="M44.196 23.1625V9.93103H49.4766C50.4918 9.93103 51.3566 10.1227 52.0712 10.506C52.7857 10.8851 53.3303 11.4127 53.705 12.0889C54.0841 12.7608 54.2736 13.5361 54.2736 14.4147C54.2736 15.2934 54.0819 16.0687 53.6985 16.7406C53.3151 17.4125 52.7596 17.9358 52.032 18.3105C51.3087 18.6852 50.433 18.8726 49.4047 18.8726H46.039V16.6308H48.9473C49.4919 16.6308 49.9406 16.5381 50.2935 16.3529C50.6508 16.1634 50.9166 15.9028 51.0909 15.5712C51.2695 15.2352 51.3588 14.8498 51.3588 14.4147C51.3588 13.9754 51.2695 13.5921 51.0909 13.2647C50.9166 12.9331 50.6508 12.6768 50.2935 12.4959C49.9363 12.3107 49.4832 12.2181 48.9342 12.2181H47.0258V23.1625H44.196Z" fill="#222935"/>
<path d="M63.9516 16.0687L61.4028 16.2237C61.3592 16.0084 61.2655 15.8146 61.1217 15.6423C60.978 15.4657 60.7884 15.3257 60.5532 15.2223C60.3222 15.1146 60.0456 15.0608 59.7232 15.0608C59.2918 15.0608 58.928 15.1513 58.6318 15.3322C58.3355 15.5087 58.1873 15.7456 58.1873 16.0428C58.1873 16.2797 58.2832 16.48 58.4749 16.6437C58.6666 16.8073 58.9956 16.9387 59.4617 17.0378L61.2786 17.3996C62.2545 17.5977 62.9821 17.9164 63.4614 18.3558C63.9407 18.7951 64.1803 19.3722 64.1803 20.0872C64.1803 20.7376 63.9864 21.3083 63.5987 21.7993C63.2152 22.2903 62.6881 22.6736 62.0171 22.9493C61.3505 23.2206 60.5815 23.3563 59.7101 23.3563C58.3812 23.3563 57.3225 23.0828 56.5339 22.5358C55.7496 21.9845 55.29 21.2351 55.1549 20.2875L57.8932 20.1454C57.976 20.5459 58.1764 20.8517 58.4945 21.0628C58.8126 21.2695 59.2199 21.3729 59.7166 21.3729C60.2046 21.3729 60.5967 21.2803 60.893 21.0951C61.1936 20.9056 61.3461 20.6622 61.3505 20.365C61.3461 20.1152 61.2394 19.9106 61.0302 19.7513C60.8211 19.5876 60.4987 19.4627 60.063 19.3765L58.3246 19.0341C57.3443 18.8403 56.6145 18.5043 56.1352 18.0263C55.6603 17.5482 55.4229 16.9387 55.4229 16.1979C55.4229 15.5604 55.5971 15.0113 55.9457 14.5504C56.2986 14.0896 56.7931 13.7342 57.4292 13.4844C58.0697 13.2346 58.8191 13.1097 59.6774 13.1097C60.9453 13.1097 61.943 13.3746 62.6706 13.9043C63.4026 14.4341 63.8296 15.1556 63.9516 16.0687Z" fill="#222935"/>
<path d="M67.1007 23.3305C66.6693 23.3305 66.299 23.1797 65.9896 22.8782C65.6847 22.5724 65.5322 22.2063 65.5322 21.7799C65.5322 21.3578 65.6847 20.996 65.9896 20.6945C66.299 20.393 66.6693 20.2423 67.1007 20.2423C67.5189 20.2423 67.8849 20.393 68.1986 20.6945C68.5123 20.996 68.6692 21.3578 68.6692 21.7799C68.6692 22.0642 68.5951 22.3248 68.4469 22.5617C68.3032 22.7942 68.1136 22.9816 67.8784 23.1237C67.6431 23.2616 67.3839 23.3305 67.1007 23.3305Z" fill="#222935"/>
<path d="M70.5471 23.1625V9.93103H79.4091V12.2375H73.3769V15.3903H78.8209V17.6968H73.3769V23.1625H70.5471Z" fill="#222935"/>
<path d="M86.6085 18.9372V13.2389H89.3926V23.1625H86.7196V21.36H86.6151C86.3885 21.9414 86.0116 22.4088 85.4844 22.7619C84.9616 23.1151 84.3233 23.2917 83.5696 23.2917C82.8986 23.2917 82.3082 23.141 81.7985 22.8395C81.2887 22.538 80.89 22.1094 80.6025 21.5538C80.3193 20.9982 80.1755 20.3327 80.1711 19.5574V13.2389H82.9552V19.0664C82.9596 19.6522 83.1186 20.1152 83.4323 20.4555C83.746 20.7957 84.1665 20.9659 84.6936 20.9659C85.0291 20.9659 85.3428 20.8905 85.6347 20.7397C85.9267 20.5847 86.1619 20.3564 86.3406 20.0549C86.5236 19.7534 86.6129 19.3808 86.6085 18.9372Z" fill="#437EF7"/>
<path d="M93.9435 17.4254V23.1625H91.1595V13.2389H93.8128V14.9897H93.9305C94.1527 14.4126 94.5252 13.956 95.048 13.6201C95.5708 13.2798 96.2048 13.1097 96.9498 13.1097C97.6469 13.1097 98.2547 13.2604 98.7732 13.5619C99.2917 13.8634 99.6947 14.2941 99.9822 14.8541C100.27 15.4097 100.414 16.073 100.414 16.844V23.1625H97.6295V17.335C97.6339 16.7277 97.477 16.2539 97.159 15.9136C96.8409 15.569 96.403 15.3968 95.8453 15.3968C95.4706 15.3968 95.1395 15.4764 94.852 15.6358C94.5687 15.7952 94.3465 16.0278 94.1853 16.3336C94.0285 16.6351 93.9479 16.999 93.9435 17.4254Z" fill="#222935"/>
<path d="M45.9086 16.5629H47.0281V18.9565H45.9086V16.5629Z" fill="#222935"/>
<path d="M9.47126 23.9685L0 18.1729L9.47126 32L18.9425 18.1729L9.47126 23.9685Z" fill="#222935"/>
<path d="M9.47126 23.9685L0 18.1729L9.47126 32L18.9425 18.1729L9.47126 23.9685Z" fill="#222935"/>
<path d="M9.47126 23.9685L0 18.1729L9.47126 32L18.9425 18.1729L9.47126 23.9685Z" fill="#222935"/>
<path d="M18.9425 16.3173L9.47438 22.1234L0 16.3173L9.47438 0L18.9425 16.3173Z" fill="#222935"/>
<path d="M18.9425 16.3173L9.47438 22.1234L0 16.3173L9.47438 0L18.9425 16.3173Z" fill="#222935"/>
<path d="M18.9425 16.3173L9.47438 22.1234L0 16.3173L9.47438 0L18.9425 16.3173Z" fill="#222935"/>
<path d="M9.47126 23.9685L0 18.1729L9.47126 32L18.9425 18.1729L9.47126 23.9685Z" fill="#222935"/>
<path d="M9.47126 23.9685L0 18.1729L9.47126 32L18.9425 18.1729L9.47126 23.9685Z" fill="#222935"/>
<path d="M9.47126 23.9685L0 18.1729L9.47126 32L18.9425 18.1729L9.47126 23.9685Z" fill="#437EF7"/>
</svg>
