
<svg width="247" height="38" viewBox="0 0 247 38" fill="none" xmlns="http://www.w3.org/2000/svg">
<path fill-rule="evenodd" clip-rule="evenodd" d="M239.357 4.42491L235.536 0.603538L235.536 0.603728L235.536 0.603706L231.714 4.42507L231.714 4.4251L224.072 12.0676L227.893 15.889L235.536 8.24646L243.178 15.8892L247 12.0678L239.357 4.4251L239.357 4.42491Z" fill="#00FF85"/>
<path fill-rule="evenodd" clip-rule="evenodd" d="M40.1955 37.2027H33.2153V0H40.1955V37.2027ZM6.98017 5.68408V16.7659H15.396C19.3348 16.7659 21.0799 14.3411 21.0799 11.2499C21.0799 8.05898 19.3348 5.68408 15.396 5.68408H6.98017ZM15.6952 0.000237711C24.0714 0.000237711 28.2595 5.21705 28.2595 11.2499C28.2595 16.5349 24.6697 22.3998 15.6952 22.3998H6.98017V37.2027H0V0.000237711H15.6952ZM45.297 23.2922C45.297 31.9177 50.8811 37.6514 57.8613 37.6514C62.2488 37.6514 65.3899 35.5574 67.0352 33.1642V37.2027H74.0653V9.58117H67.0352V13.52C65.3899 11.2265 62.3486 9.13244 57.9112 9.13244C50.8811 9.13244 45.297 14.6667 45.297 23.2922ZM67.0352 23.3919C67.0352 28.627 63.5452 31.5188 59.7061 31.5188C55.9667 31.5188 52.4268 28.5273 52.4268 23.2922C52.4268 18.0571 55.9667 15.265 59.7061 15.265C63.5452 15.265 67.0352 18.1568 67.0352 23.3919ZM107.208 37.2027H100.228V21.946C100.228 17.5086 97.7846 15.1154 94.0951 15.1154C90.3058 15.1154 87.8628 17.5086 87.8628 21.946V37.2027H80.8826V9.58117H87.8628V13.0214C89.6577 10.6781 92.6492 9.1823 96.1891 9.1823C102.621 9.1823 107.208 13.3704 107.208 20.9987V37.2027ZM112.051 23.3919C112.051 32.0673 117.735 37.6514 125.712 37.6514C130.906 37.6514 135.095 35.4353 137.48 31.8181L131.583 28.1336C130.671 30.4602 128.454 31.6684 125.662 31.6684C121.773 31.6684 119.18 28.7766 119.18 23.3919C119.18 18.0072 121.773 15.0656 125.662 15.0656C128.436 15.0656 130.689 16.4421 131.572 18.6229L137.522 14.9049C135.144 11.2021 130.936 9.13244 125.712 9.13244C117.735 9.13244 112.051 14.7166 112.051 23.3919ZM148.417 37.2027H141.437V0H148.417V21.2979L157.691 9.58117H166.765L154.6 23.4418L166.865 37.2027H157.791L148.417 25.4361V37.2027ZM182.42 14.8662C186.01 14.8662 188.902 17.1596 189.001 20.7993H175.888C176.437 17.01 179.079 14.8662 182.42 14.8662ZM194.076 32.3326C191.675 35.4873 187.62 37.6514 182.619 37.6514C174.592 37.6514 168.759 32.0673 168.759 23.3919C168.759 14.6667 174.443 9.13244 182.619 9.13244C190.597 9.13244 196.231 14.567 196.231 22.7936C196.231 23.6911 196.181 24.5885 196.031 25.486H175.839C176.188 29.5743 178.98 31.8678 182.47 31.8678C185.333 31.8678 187.403 30.4975 188.362 28.7624L194.076 32.3326ZM214.937 16.5115C210.799 16.5115 208.306 18.1069 208.306 23.4418V37.2027H201.326V9.58117H208.306V13.869C210.051 11.0271 212.943 9.1823 216.782 9.1823V16.5115H214.937Z" fill="black"/>
</svg>
