<svg width="20" height="17" viewBox="0 0 20 17" fill="none" xmlns="http://www.w3.org/2000/svg">
<path d="M6.2825 16.3333C13.83 16.3333 17.9587 10.2403 17.9587 4.96561C17.9587 4.7951 17.9587 4.62216 17.9513 4.45166C18.7551 3.88472 19.4488 3.18281 20 2.37882C19.2491 2.70138 18.4535 2.91397 17.6388 3.00968C18.4969 2.50991 19.1397 1.72356 19.4475 0.79679C18.6412 1.26217 17.7588 1.58887 16.8387 1.76257C16.2202 1.12078 15.4018 0.695605 14.5101 0.552918C13.6185 0.41023 12.7034 0.557989 11.9067 0.973307C11.1099 1.38862 10.476 2.04832 10.1031 2.85022C9.73012 3.65211 9.63897 4.55144 9.84375 5.40892C8.21218 5.32921 6.61602 4.91624 5.1588 4.19681C3.70159 3.47737 2.41586 2.46754 1.385 1.23279C0.861675 2.11342 0.701967 3.1551 0.938308 4.14629C1.17465 5.13749 1.78932 6.00389 2.6575 6.56956C2.00692 6.54802 1.37065 6.37781 0.8 6.07266V6.12747C0.801122 7.04999 1.12913 7.94384 1.72859 8.65794C2.32805 9.37203 3.16218 9.86256 4.09 10.0466C3.73783 10.1411 3.37404 10.1883 3.00875 10.1867C2.75123 10.1874 2.49423 10.1642 2.24125 10.1173C2.50348 10.9114 3.01409 11.6057 3.70156 12.103C4.38903 12.6003 5.21892 12.8756 6.075 12.8904C4.62069 14.0033 2.82425 14.6069 0.975 14.6039C0.649151 14.6053 0.323529 14.587 0 14.5491C1.87689 15.715 4.05662 16.334 6.2825 16.3333Z" fill="#101828"/>
</svg>
