
<svg width="126" height="40" viewBox="0 0 126 40" fill="none" xmlns="http://www.w3.org/2000/svg">
<path d="M35.8623 28.9531V12.4138H47.1359V15.2969H39.3996V19.2379H46.5559V22.121H39.3996V26.0701H47.1686V28.9531H35.8623Z" fill="#222935"/>
<path d="M52.9103 12.4138V28.9531H49.373V12.4138H52.9103Z" fill="#222935"/>
<path d="M55.2455 28.9531V12.4138H61.8463C63.1152 12.4138 64.1963 12.6534 65.0895 13.1326C65.9826 13.6064 66.6634 14.2659 67.1318 15.1112C67.6056 15.951 67.8425 16.9201 67.8425 18.0185C67.8425 19.1168 67.6029 20.0859 67.1236 20.9258C66.6443 21.7656 65.95 22.4198 65.0404 22.8882C64.1364 23.3566 63.0417 23.5908 61.7564 23.5908H57.5492V20.7885H61.1846C61.8653 20.7885 62.4263 20.6727 62.8674 20.4412C63.314 20.2043 63.6462 19.8786 63.8641 19.464C64.0874 19.0441 64.199 18.5622 64.199 18.0185C64.199 17.4693 64.0874 16.9901 63.8641 16.581C63.6462 16.1664 63.314 15.8461 62.8674 15.6199C62.4208 15.3884 61.8544 15.2727 61.1682 15.2727H58.7828V28.9531H55.2455Z" fill="#222935"/>
<path d="M79.94 20.0859L76.7539 20.2797C76.6995 20.0105 76.5824 19.7682 76.4027 19.5529C76.2229 19.3321 75.986 19.1571 75.6919 19.0279C75.4033 18.8933 75.0575 18.826 74.6544 18.826C74.1153 18.826 73.6605 18.9391 73.2902 19.1652C72.9198 19.386 72.7347 19.6821 72.7347 20.0536C72.7347 20.3497 72.8545 20.6 73.0941 20.8046C73.3337 21.0092 73.7449 21.1734 74.3277 21.2972L76.5987 21.7495C77.8187 21.9972 78.7282 22.3956 79.3273 22.9447C79.9263 23.4939 80.2259 24.2153 80.2259 25.109C80.2259 25.922 79.9835 26.6354 79.4988 27.2491C79.0196 27.8629 78.3606 28.3421 77.5219 28.6866C76.6886 29.0258 75.7273 29.1954 74.6381 29.1954C72.977 29.1954 71.6536 28.8535 70.6678 28.1698C69.6875 27.4807 69.113 26.5439 68.9441 25.3594L72.3671 25.1817C72.4705 25.6824 72.7211 26.0647 73.1186 26.3285C73.5162 26.5869 74.0254 26.7161 74.6463 26.7161C75.2562 26.7161 75.7464 26.6004 76.1167 26.3689C76.4925 26.132 76.6831 25.8278 76.6886 25.4563C76.6831 25.144 76.5497 24.8883 76.2883 24.6891C76.0269 24.4845 75.6239 24.3284 75.0792 24.2207L72.9062 23.7927C71.6808 23.5504 70.7686 23.1305 70.1695 22.5329C69.5759 21.9352 69.2791 21.1734 69.2791 20.2474C69.2791 19.4506 69.4969 18.7641 69.9326 18.188C70.3738 17.612 70.9919 17.1678 71.787 16.8555C72.5876 16.5433 73.5244 16.3871 74.5973 16.3871C76.1821 16.3871 77.4293 16.7182 78.3388 17.3805C79.2537 18.0427 79.7875 18.9445 79.94 20.0859Z" fill="#222935"/>
<path d="M83.8763 29.1631C83.3371 29.1631 82.8742 28.9747 82.4875 28.5978C82.1063 28.2156 81.9157 27.7579 81.9157 27.2249C81.9157 26.6973 82.1063 26.2451 82.4875 25.8682C82.8742 25.4913 83.3371 25.3029 83.8763 25.3029C84.3991 25.3029 84.8566 25.4913 85.2487 25.8682C85.6409 26.2451 85.8369 26.6973 85.8369 27.2249C85.8369 27.5803 85.7443 27.906 85.5592 28.2021C85.3795 28.4928 85.1425 28.727 84.8484 28.9047C84.5544 29.077 84.2303 29.1631 83.8763 29.1631Z" fill="#222935"/>
<path d="M88.1844 28.9531V12.4138H99.2619V15.2969H91.7217V19.2379H98.5267V22.121H91.7217V28.9531H88.1844Z" fill="#222935"/>
<path d="M108.261 23.6715V16.5487H111.741V28.9531H108.4V26.7H108.269C107.986 27.4268 107.515 28.011 106.856 28.4524C106.202 28.8939 105.405 29.1147 104.462 29.1147C103.624 29.1147 102.886 28.9262 102.249 28.5494C101.611 28.1725 101.113 27.6368 100.754 26.9423C100.4 26.2477 100.22 25.4159 100.214 24.4468V16.5487H103.695V23.8331C103.7 24.5653 103.899 25.144 104.291 25.5694C104.683 25.9947 105.209 26.2074 105.868 26.2074C106.287 26.2074 106.679 26.1131 107.044 25.9247C107.409 25.7309 107.703 25.4455 107.926 25.0687C108.155 24.6918 108.267 24.2261 108.261 23.6715Z" fill="#437EF7"/>
<path d="M117.43 21.7818V28.9531H113.95V16.5487H117.267V18.7372H117.414C117.691 18.0158 118.157 17.4451 118.811 17.0251C119.464 16.5998 120.256 16.3871 121.188 16.3871C122.059 16.3871 122.819 16.5756 123.467 16.9524C124.115 17.3293 124.619 17.8677 124.978 18.5676C125.338 19.2621 125.517 20.0913 125.517 21.055V28.9531H122.037V21.6687C122.043 20.9096 121.847 20.3174 121.449 19.8921C121.052 19.4613 120.504 19.246 119.807 19.246C119.339 19.246 118.925 19.3456 118.565 19.5448C118.211 19.744 117.934 20.0347 117.732 20.417C117.536 20.7939 117.435 21.2488 117.43 21.7818Z" fill="#222935"/>
<path d="M57.3862 20.7037H58.7856V23.6956H57.3862V20.7037Z" fill="#222935"/>
<path d="M11.8391 29.9606L0 22.7161L11.8391 40L23.6782 22.7161L11.8391 29.9606Z" fill="#222935"/>
<path d="M11.8391 29.9606L0 22.7161L11.8391 40L23.6782 22.7161L11.8391 29.9606Z" fill="#222935"/>
<path d="M11.8391 29.9606L0 22.7161L11.8391 40L23.6782 22.7161L11.8391 29.9606Z" fill="#222935"/>
<path d="M23.6782 20.3966L11.843 27.6543L0 20.3966L11.843 0L23.6782 20.3966Z" fill="#222935"/>
<path d="M23.6782 20.3966L11.843 27.6543L0 20.3966L11.843 0L23.6782 20.3966Z" fill="#222935"/>
<path d="M23.6782 20.3966L11.843 27.6543L0 20.3966L11.843 0L23.6782 20.3966Z" fill="#222935"/>
<path d="M11.8391 29.9606L0 22.7161L11.8391 40L23.6782 22.7161L11.8391 29.9606Z" fill="#222935"/>
<path d="M11.8391 29.9606L0 22.7161L11.8391 40L23.6782 22.7161L11.8391 29.9606Z" fill="#222935"/>
<path d="M11.8391 29.9606L0 22.7161L11.8391 40L23.6782 22.7161L11.8391 29.9606Z" fill="#437EF7"/>
</svg>
