
<svg width="131" height="40" viewBox="0 0 131 40" fill="none" xmlns="http://www.w3.org/2000/svg">
<path d="M41.2642 28V13.4545H51.0653V15.9901H44.3395V19.456H50.5611V21.9915H44.3395V25.4645H51.0938V28H41.2642ZM55.5856 13.4545V28H52.5103V13.4545H55.5856ZM57.1158 28V13.4545H62.8544C63.9576 13.4545 64.8975 13.6652 65.674 14.0866C66.4505 14.5033 67.0424 15.0833 67.4496 15.8267C67.8615 16.5653 68.0675 17.4176 68.0675 18.3835C68.0675 19.3494 67.8591 20.2017 67.4425 20.9403C67.0258 21.679 66.4221 22.2543 65.6314 22.6662C64.8454 23.0781 63.8937 23.2841 62.7763 23.2841H59.1186V20.8196H62.2791C62.871 20.8196 63.3587 20.7178 63.7422 20.5142C64.1304 20.3059 64.4193 20.0194 64.6087 19.6548C64.8028 19.2855 64.8999 18.8617 64.8999 18.3835C64.8999 17.9006 64.8028 17.4792 64.6087 17.1193C64.4193 16.7547 64.1304 16.473 63.7422 16.2741C63.3539 16.0705 62.8615 15.9688 62.2649 15.9688H60.1911V28H57.1158ZM78.0849 20.2017L75.315 20.3722C75.2676 20.1354 75.1658 19.9223 75.0096 19.733C74.8533 19.5388 74.6474 19.3849 74.3917 19.2713C74.1407 19.1529 73.8401 19.0938 73.4897 19.0938C73.021 19.0938 72.6256 19.1932 72.3036 19.392C71.9817 19.5862 71.8207 19.8466 71.8207 20.1733C71.8207 20.4337 71.9248 20.6539 72.1332 20.8338C72.3415 21.0137 72.699 21.1581 73.2056 21.267L75.18 21.6648C76.2406 21.8826 77.0314 22.233 77.5522 22.7159C78.073 23.1989 78.3335 23.8333 78.3335 24.6193C78.3335 25.3343 78.1228 25.9616 77.7013 26.5014C77.2847 27.0412 76.7118 27.4626 75.9826 27.7656C75.2582 28.0639 74.4225 28.2131 73.4755 28.2131C72.0314 28.2131 70.8808 27.9124 70.0238 27.3111C69.1715 26.705 68.672 25.8812 68.5252 24.8395L71.5011 24.6832C71.591 25.1236 71.8088 25.4598 72.1545 25.6918C72.5001 25.919 72.9428 26.0327 73.4826 26.0327C74.0129 26.0327 74.439 25.9309 74.761 25.7273C75.0877 25.5189 75.2534 25.2514 75.2582 24.9247C75.2534 24.6501 75.1374 24.4252 74.9102 24.25C74.6829 24.0701 74.3325 23.9328 73.859 23.8381L71.9698 23.4616C70.9045 23.2486 70.1114 22.8793 69.5906 22.3537C69.0745 21.8281 68.8164 21.1581 68.8164 20.3438C68.8164 19.643 69.0058 19.0393 69.3846 18.5327C69.7681 18.026 70.3055 17.6354 70.9968 17.3608C71.6928 17.0862 72.5072 16.9489 73.44 16.9489C74.8178 16.9489 75.9021 17.2401 76.6928 17.8224C77.4883 18.4048 77.9523 19.1979 78.0849 20.2017ZM81.0071 28.1847C80.5384 28.1847 80.1359 28.0189 79.7997 27.6875C79.4683 27.3513 79.3026 26.9489 79.3026 26.4801C79.3026 26.0161 79.4683 25.6184 79.7997 25.2869C80.1359 24.9555 80.5384 24.7898 81.0071 24.7898C81.4616 24.7898 81.8594 24.9555 82.2003 25.2869C82.5412 25.6184 82.7116 26.0161 82.7116 26.4801C82.7116 26.7926 82.6312 27.0791 82.4702 27.3395C82.3139 27.5952 82.108 27.8011 81.8523 27.9574C81.5966 28.1089 81.3149 28.1847 81.0071 28.1847ZM84.2525 28V13.4545H93.8832V15.9901H87.3278V19.456H93.244V21.9915H87.3278V28H84.2525ZM101.207 23.3551V17.0909H104.233V28H101.328V26.0185H101.214C100.968 26.6577 100.558 27.1714 99.9854 27.5597C99.4173 27.9479 98.7236 28.142 97.9045 28.142C97.1753 28.142 96.5337 27.9763 95.9798 27.6449C95.4258 27.3134 94.9925 26.8423 94.68 26.2315C94.3723 25.6207 94.216 24.8892 94.2113 24.0369V17.0909H97.2369V23.4972C97.2416 24.1411 97.4144 24.6501 97.7553 25.0241C98.0962 25.3982 98.5531 25.5852 99.1261 25.5852C99.4906 25.5852 99.8316 25.5024 100.149 25.3366C100.466 25.1662 100.722 24.9152 100.916 24.5838C101.115 24.2524 101.212 23.8428 101.207 23.3551ZM108.678 21.6932V28H105.653V17.0909H108.536V19.0156H108.664C108.906 18.3812 109.31 17.8793 109.879 17.5099C110.447 17.1359 111.136 16.9489 111.945 16.9489C112.703 16.9489 113.363 17.1146 113.927 17.446C114.49 17.7775 114.928 18.2509 115.241 18.8665C115.553 19.4773 115.71 20.2064 115.71 21.054V28H112.684V21.5938C112.689 20.9261 112.518 20.4053 112.173 20.0312C111.827 19.6525 111.351 19.4631 110.745 19.4631C110.338 19.4631 109.978 19.5507 109.665 19.7259C109.358 19.901 109.116 20.1567 108.941 20.4929C108.771 20.8243 108.683 21.2244 108.678 21.6932Z" fill="#2E343F"/>
<path d="M4 31V9H18.8242V12.835H8.65137V18.0771H18.0615V21.9121H8.65137V27.165H18.8672V31H4Z" fill="#2E343F"/>
<path d="M19.0061 9V31H14.3547V9H19.0061Z" fill="#2E343F"/>
<path d="M14.6655 31V9H23.3452C25.0138 9 26.4353 9.31868 27.6098 9.95605C28.7843 10.5863 29.6795 11.4635 30.2954 12.5879C30.9184 13.7051 31.2299 14.9941 31.2299 16.4551C31.2299 17.916 30.9148 19.2051 30.2846 20.3223C29.6544 21.4395 28.7413 22.3096 27.5454 22.9326C26.3566 23.5557 24.9171 23.8672 23.227 23.8672H17.6948V20.1396H22.4751C23.3702 20.1396 24.1079 19.9857 24.6879 19.6777C25.2752 19.3626 25.712 18.9294 25.9985 18.3779C26.2921 17.8193 26.4389 17.1784 26.4389 16.4551C26.4389 15.7246 26.2921 15.0872 25.9985 14.543C25.712 13.9915 25.2752 13.5654 24.6879 13.2646C24.1007 12.9567 23.3559 12.8027 22.4536 12.8027H19.3169V31H14.6655Z" fill="#2E343F"/>
<rect x="14.1001" y="9" width="5.21053" height="22" fill="#437EF7"/>
</svg>
