<svg width="113" height="40" viewBox="0 0 113 40" fill="none" xmlns="http://www.w3.org/2000/svg">
<g id="EIPs Fun logo">
<g id="Vector">
<path d="M35.8621 28.9531V12.4138H47.1356V15.2969H39.3994V19.2379H46.5556V22.121H39.3994V26.0701H47.1683V28.9531H35.8621Z" fill="#222935"/>
<path d="M52.9101 12.4138V28.9531H49.3728V12.4138H52.9101Z" fill="#222935"/>
<path d="M55.2453 28.9531V12.4138H61.846C63.115 12.4138 64.196 12.6534 65.0892 13.1326C65.9824 13.6064 66.6632 14.2659 67.1315 15.1112C67.6054 15.951 67.8423 16.9201 67.8423 18.0185C67.8423 19.1168 67.6026 20.0859 67.1234 20.9258C66.6441 21.7656 65.9497 22.4198 65.0402 22.8882C64.1361 23.3566 63.0415 23.5908 61.7562 23.5908H57.549V20.7885H61.1843C61.8651 20.7885 62.426 20.6727 62.8672 20.4412C63.3138 20.2043 63.646 19.8786 63.8638 19.464C64.0871 19.0441 64.1988 18.5622 64.1988 18.0185C64.1988 17.4693 64.0871 16.9901 63.8638 16.581C63.646 16.1664 63.3138 15.8461 62.8672 15.6199C62.4206 15.3884 61.8542 15.2727 61.168 15.2727H58.7826V28.9531H55.2453Z" fill="#222935"/>
<path d="M70.8761 29.1631C70.3369 29.1631 69.874 28.9747 69.4873 28.5978C69.1061 28.2156 68.9154 27.7579 68.9154 27.2249C68.9154 26.6973 69.1061 26.2451 69.4873 25.8682C69.874 25.4913 70.3369 25.3029 70.8761 25.3029C71.3989 25.3029 71.8564 25.4913 72.2485 25.8682C72.6406 26.2451 72.8367 26.6973 72.8367 27.2249C72.8367 27.5803 72.7441 27.906 72.5589 28.2021C72.3792 28.4928 72.1423 28.727 71.8482 28.9047C71.5541 29.077 71.2301 29.1631 70.8761 29.1631Z" fill="#222935"/>
<path d="M75.1841 28.9531V12.4138H86.2616V15.2969H78.7214V19.2379H85.5264V22.121H78.7214V28.9531H75.1841Z" fill="#222935"/>
<path d="M95.2609 23.6715V16.5487H98.741V28.9531H95.3998V26.7H95.2691C94.9859 27.4268 94.5148 28.011 93.8558 28.4524C93.2022 28.8939 92.4044 29.1147 91.4622 29.1147C90.6235 29.1147 89.8855 28.9262 89.2483 28.5494C88.6111 28.1725 88.1128 27.6368 87.7533 26.9423C87.3993 26.2477 87.2196 25.4159 87.2142 24.4468V16.5487H90.6943V23.8331C90.6997 24.5653 90.8985 25.144 91.2906 25.5694C91.6828 25.9947 92.2083 26.2074 92.8673 26.2074C93.2867 26.2074 93.6788 26.1131 94.0437 25.9247C94.4086 25.7309 94.7027 25.4455 94.9259 25.0687C95.1547 24.6918 95.2663 24.2261 95.2609 23.6715Z" fill="#437EF7"/>
<path d="M104.43 21.7818V28.9531H100.95V16.5487H104.266V18.7372H104.413C104.691 18.0158 105.157 17.4451 105.81 17.0251C106.464 16.5998 107.256 16.3871 108.188 16.3871C109.059 16.3871 109.819 16.5756 110.467 16.9524C111.115 17.3293 111.619 17.8677 111.978 18.5676C112.338 19.2621 112.517 20.0913 112.517 21.055V28.9531H109.037V21.6687C109.043 20.9096 108.847 20.3174 108.449 19.8921C108.051 19.4613 107.504 19.246 106.807 19.246C106.339 19.246 105.925 19.3456 105.565 19.5448C105.211 19.744 104.933 20.0347 104.732 20.417C104.536 20.7939 104.435 21.2488 104.43 21.7818Z" fill="#222935"/>
<path d="M57.386 20.7037H58.7854V23.6956H57.386V20.7037Z" fill="#222935"/>
</g>
<g id="Vector_2">
<path d="M11.8391 29.9606L0 22.7161L11.8391 40L23.6782 22.7161L11.8391 29.9606Z" fill="#222935"/>
<path d="M11.8391 29.9606L0 22.7161L11.8391 40L23.6782 22.7161L11.8391 29.9606Z" fill="#222935"/>
<path d="M11.8391 29.9606L0 22.7161L11.8391 40L23.6782 22.7161L11.8391 29.9606Z" fill="#222935"/>
<path d="M23.6782 20.3966L11.843 27.6543L0 20.3966L11.843 0L23.6782 20.3966Z" fill="#222935"/>
<path d="M23.6782 20.3966L11.843 27.6543L0 20.3966L11.843 0L23.6782 20.3966Z" fill="#222935"/>
<path d="M23.6782 20.3966L11.843 27.6543L0 20.3966L11.843 0L23.6782 20.3966Z" fill="#222935"/>
<path d="M11.8391 29.9606L0 22.7161L11.8391 40L23.6782 22.7161L11.8391 29.9606Z" fill="#222935"/>
<path d="M11.8391 29.9606L0 22.7161L11.8391 40L23.6782 22.7161L11.8391 29.9606Z" fill="#222935"/>
<path d="M11.8391 29.9606L0 22.7161L11.8391 40L23.6782 22.7161L11.8391 29.9606Z" fill="#437EF7"/>
</g>
</g>
</svg>
